<svg xmlns="http://www.w3.org/2000/svg" width="1200" height="700" viewBox="0 0 1200 700">
  <defs>
    <linearGradient id="bg" x1="0" y1="0" x2="1" y2="1">
      <stop offset="0%" stop-color="#fff2e3"/>
      <stop offset="100%" stop-color="#ffe3c0"/>
    </linearGradient>
  </defs>
  <rect width="1200" height="700" fill="url(#bg)"/>
  <rect x="70" y="70" width="1060" height="560" rx="36" fill="#ffffff" stroke="#f0d8bd" stroke-width="5"/>
  <rect x="110" y="105" width="980" height="88" rx="22" fill="#fd7e14"/>
  <text x="150" y="160" fill="#ffffff" font-size="38" font-family="Arial" font-weight="bold">Double Decker Interior</text>
  <text x="150" y="192" fill="#fff2e8" font-size="22" font-family="Arial">Two-level seating layout with bright upper deck atmosphere</text>
  <rect x="145" y="245" width="910" height="110" rx="26" fill="#ffe8d3"/>
  <rect x="145" y="380" width="910" height="110" rx="26" fill="#ffebd9"/>
  <line x1="145" y1="367" x2="1055" y2="367" stroke="#eab888" stroke-width="8"/>
  <g fill="#fff6ee">
    <rect x="175" y="265" width="110" height="70" rx="18"/>
    <rect x="310" y="265" width="110" height="70" rx="18"/>
    <rect x="780" y="265" width="110" height="70" rx="18"/>
    <rect x="915" y="265" width="110" height="70" rx="18"/>
    <rect x="175" y="400" width="110" height="70" rx="18"/>
    <rect x="310" y="400" width="110" height="70" rx="18"/>
    <rect x="780" y="400" width="110" height="70" rx="18"/>
    <rect x="915" y="400" width="110" height="70" rx="18"/>
  </g>
  <text x="500" y="320" fill="#9b6840" font-size="28" font-family="Arial">Upper Deck</text>
  <text x="500" y="455" fill="#9b6840" font-size="28" font-family="Arial">Lower Deck</text>
  <text x="150" y="585" fill="#5b3717" font-size="28" font-family="Arial" font-weight="bold">Spacious double deck layout with two passenger levels</text>
</svg>
